<svg width="116" height="33" viewBox="0 0 116 33" fill="none" xmlns="http://www.w3.org/2000/svg">
<path d="M5.41391 21.514C5.01335 20.8416 5.28997 19.9702 6.00506 19.6519L12.3385 16.833C12.7214 16.6626 13.1627 16.6862 13.5252 16.8964L17.1442 18.9952C17.5048 19.2043 17.7439 19.5729 17.7879 19.9874L18.5269 26.9467C18.6093 27.7228 17.9974 28.3975 17.217 28.391L14.2894 28.367C13.5015 28.3605 12.8986 27.6633 13.0059 26.8827L13.5913 22.6237C13.6393 22.2743 13.4709 21.9307 13.1653 21.7547C12.8593 21.5785 12.4769 21.6055 12.1988 21.8231L8.86465 24.4317C8.2448 24.9167 7.34004 24.7475 6.93727 24.0714L5.41391 21.514Z" fill="white"/>
<path fill-rule="evenodd" clip-rule="evenodd" d="M19.1674 18.8047L24.7642 22.9217C25.0811 23.1548 25.5307 23.0569 25.722 22.7132L27.1724 20.1078C27.3634 19.7646 27.2106 19.3318 26.8466 19.1845L22.8811 17.5803C22.3068 17.348 21.9309 16.7904 21.9309 16.1709C21.9309 15.5553 22.3021 15.0005 22.8712 14.7656L26.8505 13.1229C27.2127 12.9734 27.3627 12.5408 27.1707 12.1991L25.7255 9.62735C25.5333 9.2853 25.0851 9.18868 24.769 9.42116L19.1674 13.5415C19.0001 13.6646 18.9013 13.8599 18.9013 14.0677V18.2786C18.9013 18.4863 19.0001 18.6817 19.1674 18.8047ZM18.7804 19.3309C18.4457 19.0847 18.248 18.694 18.248 18.2786V14.0677C18.248 13.6522 18.4457 13.2615 18.7804 13.0153L24.382 8.89497C25.0141 8.43002 25.9106 8.62327 26.295 9.30735L27.7402 11.8791C28.1241 12.5624 27.8242 13.4276 27.0998 13.7267L23.1204 15.3694C22.7959 15.5034 22.5841 15.8198 22.5841 16.1709C22.5841 16.5242 22.7985 16.8422 23.1261 16.9748L27.0916 18.579C27.8196 18.8735 28.1251 19.7393 27.7431 20.4255L26.2927 23.0309C25.9101 23.7184 25.011 23.9141 24.3772 23.4479L18.7804 19.3309Z" fill="#2DEBFC"/>
<path d="M17.1441 13.303C17.5047 13.0939 17.7438 12.7253 17.7878 12.3108L18.5255 5.36357C18.6083 4.58323 17.9894 3.90645 17.2048 3.9194L14.2768 3.96776C13.4933 3.98069 12.8974 4.67562 13.0041 5.45189L13.591 9.72167C13.6392 10.072 13.4702 10.4165 13.1638 10.5928C12.8583 10.7686 12.477 10.7425 12.1984 10.5266L8.81845 7.9078C8.19711 7.42637 7.29439 7.59867 6.89404 8.2751L5.40812 10.7857C5.01021 11.4581 5.28742 12.327 6.00116 12.6447L12.3384 15.4652C12.7213 15.6356 13.1626 15.612 13.5251 15.4018L17.1441 13.303Z" fill="#2C85FC"/>
<path d="M48.0725 15.0615V23.5638H51.236V12.7284H46.6289V15.0615H48.0725Z" fill="white"/>
<path d="M47.9732 11.206C48.2632 11.5091 48.7048 11.6607 49.2979 11.6607C49.8913 11.6607 50.3261 11.5091 50.6027 11.206C50.893 10.8895 51.0377 10.4941 51.0377 10.0196C51.0377 9.53186 50.893 9.13638 50.6027 8.83329C50.3261 8.51694 49.8913 8.3587 49.2979 8.3587C48.7048 8.3587 48.2632 8.51694 47.9732 8.83329C47.6966 9.13638 47.5581 9.53186 47.5581 10.0196C47.5581 10.4941 47.6966 10.8895 47.9732 11.206Z" fill="white"/>
<path d="M72.67 23.5132C72.96 23.8163 73.4016 23.9679 73.9947 23.9679C74.5881 23.9679 75.0228 23.8163 75.2995 23.5132C75.5898 23.1967 75.7345 22.8013 75.7345 22.3268C75.7345 21.8391 75.5898 21.4436 75.2995 21.1405C75.0228 20.8241 74.5881 20.6659 73.9947 20.6659C73.4016 20.6659 72.96 20.8241 72.67 21.1405C72.3934 21.4436 72.2549 21.8391 72.2549 22.3268C72.2549 22.8013 72.3934 23.1967 72.67 23.5132Z" fill="white"/>
<path d="M37.0593 23.3263C37.9555 23.7349 39.0562 23.9394 40.3609 23.9394C41.587 23.9394 42.6413 23.7483 43.5247 23.3659C44.4079 22.9837 45.0865 22.4497 45.5611 21.7645C46.049 21.0656 46.2927 20.255 46.2927 19.3323C46.2927 18.436 46.0624 17.6781 45.6009 17.0584C45.1525 16.4258 44.5267 15.9315 43.7223 15.5757C42.9182 15.2065 41.9891 14.9758 40.9345 14.8836L39.8273 14.7848C39.1682 14.7319 38.6936 14.5541 38.4036 14.2508C38.1136 13.9477 37.9686 13.5917 37.9686 13.1832C37.9686 12.8667 38.0479 12.5768 38.2057 12.3132C38.3641 12.0363 38.6012 11.8189 38.9177 11.6606C39.2472 11.5025 39.6493 11.4234 40.1238 11.4234C40.6245 11.4234 41.0399 11.5156 41.3695 11.7002C41.442 11.7393 41.5109 11.781 41.5756 11.8252L41.5913 11.8362C41.6154 11.8529 41.6393 11.8703 41.6624 11.8878C41.8627 12.0408 42.022 12.2221 42.1406 12.4318C42.3117 12.7218 42.398 13.0447 42.398 13.4007H45.5611C45.5611 12.4515 45.3436 11.6277 44.9089 10.9291C44.4738 10.2173 43.8477 9.67028 43.0306 9.28789C42.2262 8.89244 41.2575 8.69472 40.1238 8.69472C39.0428 8.69472 38.1071 8.87938 37.316 9.24841C36.5253 9.60437 35.9058 10.1184 35.4577 10.7906C35.0223 11.4629 34.8048 12.2605 34.8048 13.1832C34.8048 14.4617 35.2336 15.4899 36.0903 16.2677C36.947 17.0454 38.094 17.4935 39.5307 17.6122L40.6183 17.711C41.5011 17.7901 42.1406 17.9681 42.5361 18.2448C42.9313 18.5084 43.1292 18.8709 43.1292 19.3323C43.1292 19.5444 43.0946 19.7432 43.025 19.929C42.9734 20.0669 42.9029 20.1975 42.8131 20.321C42.6018 20.5979 42.2921 20.8151 41.8836 20.9735C41.475 21.1316 40.9674 21.2106 40.3609 21.2106C39.6888 21.2106 39.1417 21.1185 38.7201 20.934C38.2981 20.7361 37.982 20.479 37.7707 20.1629C37.5731 19.8464 37.4744 19.5038 37.4744 19.1346H34.3306C34.3306 20.0705 34.5612 20.901 35.0223 21.6261C35.4838 22.3377 36.1628 22.9047 37.0593 23.3263Z" fill="white"/>
<path d="M79.8826 23.3263C80.7788 23.7349 81.8794 23.9394 83.1842 23.9394C84.4102 23.9394 85.4645 23.7483 86.348 23.3659C87.2311 22.9837 87.9098 22.4497 88.3843 21.7645C88.8723 21.0656 89.1159 20.255 89.1159 19.3323C89.1159 18.436 88.8857 17.6781 88.4242 17.0584C87.9758 16.4258 87.35 15.9315 86.5456 15.5757C85.7415 15.2065 84.8123 14.9758 83.7577 14.8836L82.6505 14.7848C81.9914 14.7319 81.5169 14.5541 81.2269 14.2508C80.9368 13.9477 80.7918 13.5917 80.7918 13.1832C80.7918 12.8667 80.8712 12.5768 81.0289 12.3132C81.1873 12.0363 81.4245 11.8189 81.7409 11.6606C82.0705 11.5025 82.4725 11.4234 82.9471 11.4234C83.4478 11.4234 83.8632 11.5156 84.1927 11.7002C84.2652 11.7393 84.3341 11.781 84.3988 11.8252L84.4145 11.8362C84.4387 11.8529 84.4625 11.8703 84.4857 11.8878C84.6859 12.0408 84.8453 12.2221 84.9638 12.4318C85.135 12.7218 85.2212 13.0447 85.2212 13.4007H88.3843C88.3843 12.4515 88.1668 11.6277 87.7321 10.9291C87.2971 10.2173 86.671 9.67028 85.8538 9.28789C85.0494 8.89244 84.0807 8.69472 82.9471 8.69472C81.866 8.69472 80.9303 8.87938 80.1393 9.24841C79.3486 9.60437 78.729 10.1184 78.2809 10.7906C77.8456 11.4629 77.628 12.2605 77.628 13.1832C77.628 14.4617 78.0569 15.4899 78.9135 16.2677C79.7702 17.0454 80.9172 17.4935 82.354 17.6122L83.4415 17.711C84.3243 17.7901 84.9638 17.9681 85.3594 18.2448C85.7545 18.5084 85.9525 18.8709 85.9525 19.3323C85.9525 19.5444 85.9178 19.7432 85.8483 19.929C85.7967 20.0669 85.7261 20.1975 85.6363 20.321C85.425 20.5979 85.1154 20.8151 84.7068 20.9735C84.2982 21.1316 83.7907 21.2106 83.1842 21.2106C82.512 21.2106 81.965 21.1185 81.5433 20.934C81.1214 20.7361 80.8052 20.479 80.5939 20.1629C80.3963 19.8464 80.2977 19.5038 80.2977 19.1346H77.1538C77.1538 20.0705 77.3844 20.901 77.8456 21.6261C78.307 22.3377 78.986 22.9047 79.8826 23.3263Z" fill="white"/>
<path d="M58.2947 23.7019C57.2006 23.7019 56.3175 23.5703 55.6453 23.3064C54.9728 23.0298 54.4787 22.5752 54.1622 21.9425C53.8591 21.2965 53.7076 20.4264 53.7076 19.3323V15.0417H52.0664V12.7284H53.7076V9.80209H56.6535V12.7284H59.8173V15.0417H56.6535V19.4511C56.6535 19.9651 56.7855 20.3605 57.049 20.6371C57.3257 20.901 57.7147 21.0326 58.2157 21.0326H59.8173V23.7019H58.2947Z" fill="white"/>
<path d="M107.551 23.7019C106.456 23.7019 105.573 23.5703 104.901 23.3064C104.229 23.0298 103.735 22.5752 103.418 21.9425C103.115 21.2965 102.963 20.4264 102.963 19.3323V15.0417H101.322V12.7284H102.963V9.80209H105.909V12.7284H109.073V15.0417H105.909V19.4511C105.909 19.9651 106.041 20.3605 106.305 20.6371C106.582 20.901 106.971 21.0326 107.472 21.0326H109.073V23.7019H107.551Z" fill="white"/>
<path fill-rule="evenodd" clip-rule="evenodd" d="M63.6258 23.4649C64.3374 23.7814 65.1549 23.9394 66.0776 23.9394C66.9868 23.9394 67.7913 23.7814 68.4899 23.4649C69.1885 23.1484 69.7685 22.7068 70.2297 22.1402C70.6911 21.5732 71.0011 20.9275 71.1588 20.2025H68.2524C68.1208 20.532 67.8703 20.8086 67.5012 21.0327C67.1322 21.2571 66.6573 21.3691 66.0776 21.3691C65.7183 21.3691 65.3973 21.3266 65.1144 21.2414C64.8992 21.1767 64.7062 21.0876 64.5354 20.9736C64.1398 20.71 63.8498 20.3406 63.6653 19.8663C63.614 19.7312 63.5702 19.5898 63.5333 19.4425C63.4958 19.2934 63.4654 19.1381 63.4425 18.9766H71.3568V17.9088C71.3568 16.9202 71.1458 16.0107 70.7241 15.1803C70.3022 14.3365 69.6891 13.6577 68.8854 13.1436C68.0943 12.6164 67.1188 12.3527 65.9587 12.3527C65.0756 12.3527 64.2845 12.511 63.5859 12.8273C62.901 13.1304 62.3275 13.5456 61.866 14.0729C61.4049 14.6001 61.0489 15.2 60.7981 15.8723C60.5609 16.5312 60.4424 17.2233 60.4424 17.9483V18.3437C60.4424 19.0425 60.5609 19.7278 60.7981 20.4001C61.0489 21.0591 61.4049 21.6588 61.866 22.1993C62.3406 22.7268 62.9268 23.1484 63.6258 23.4649ZM63.4971 17.0214C63.5059 16.9796 63.5151 16.9383 63.5252 16.8977C63.5526 16.7859 63.5843 16.6788 63.6202 16.5765C63.6405 16.5182 63.662 16.4613 63.6852 16.4061C63.8828 15.9183 64.1728 15.5493 64.555 15.2989C64.698 15.2053 64.8528 15.1292 65.0191 15.0706C65.2986 14.9724 65.6122 14.9232 65.9587 14.9232C66.4995 14.9232 66.9473 15.0485 67.3033 15.2989C67.6724 15.5361 67.9493 15.8854 68.1339 16.3467C68.1489 16.384 68.1629 16.4219 68.1766 16.4602C68.1985 16.5214 68.2188 16.5841 68.2377 16.6484C68.2655 16.7441 68.29 16.8431 68.3115 16.9455C68.3272 17.0209 68.3406 17.0981 68.3527 17.1773H63.4667C63.4759 17.1244 63.486 17.0725 63.4971 17.0214Z" fill="white"/>
<path fill-rule="evenodd" clip-rule="evenodd" d="M93.0745 23.4649C93.7862 23.7814 94.6037 23.9394 95.5263 23.9394C96.4356 23.9394 97.24 23.7814 97.9386 23.4649C98.6372 23.1484 99.2172 22.7068 99.6784 22.1402C100.14 21.5732 100.45 20.9275 100.608 20.2025H97.7011C97.5695 20.532 97.319 20.8086 96.95 21.0327C96.5809 21.2571 96.106 21.3691 95.5263 21.3691C95.167 21.3691 94.846 21.3266 94.5632 21.2414C94.3479 21.1767 94.1549 21.0876 93.9841 20.9736C93.5886 20.71 93.2986 20.3406 93.114 19.8663C93.0627 19.7312 93.019 19.5898 92.9821 19.4425C92.9445 19.2934 92.9141 19.1381 92.8913 18.9766H100.805V17.9088C100.805 16.9202 100.595 16.0107 100.173 15.1803C99.7509 14.3365 99.1379 13.6577 98.3341 13.1436C97.5431 12.6164 96.5675 12.3527 95.4074 12.3527C94.5243 12.3527 93.7333 12.511 93.0347 12.8273C92.3498 13.1304 91.7763 13.5456 91.3148 14.0729C90.8536 14.6001 90.4976 15.2 90.2468 15.8723C90.0097 16.5312 89.8911 17.2233 89.8911 17.9483V18.3437C89.8911 19.0425 90.0097 19.7278 90.2468 20.4001C90.4976 21.0591 90.8536 21.6588 91.3148 22.1993C91.7893 22.7268 92.3756 23.1484 93.0745 23.4649ZM92.9458 17.0214C92.9546 16.9796 92.9638 16.9383 92.9739 16.8977C93.0013 16.7859 93.033 16.6788 93.069 16.5765C93.0892 16.5182 93.1108 16.4613 93.1339 16.4061C93.3315 15.9183 93.6216 15.5493 94.0037 15.2989C94.1467 15.2053 94.3015 15.1292 94.4678 15.0706C94.7474 14.9724 95.0609 14.9232 95.4074 14.9232C95.9483 14.9232 96.396 15.0485 96.752 15.2989C97.1211 15.5361 97.3981 15.8854 97.5826 16.3467C97.5976 16.384 97.6117 16.4219 97.6254 16.4602C97.6473 16.5214 97.6675 16.5841 97.6864 16.6484C97.7142 16.7441 97.7387 16.8431 97.7603 16.9455C97.7759 17.0209 97.7893 17.0981 97.8014 17.1773H92.9154C92.9246 17.1244 92.9347 17.0725 92.9458 17.0214Z" fill="white"/>
</svg>
